<?xml version="1.0" encoding="iso-8859-1"?>
<!-- Generator: Adobe Illustrator 18.0.0, SVG Export Plug-In . SVG Version: 6.00 Build 0)  -->
<!DOCTYPE svg PUBLIC "-//W3C//DTD SVG 1.1//EN" "http://www.w3.org/Graphics/SVG/1.1/DTD/svg11.dtd">
<svg version="1.1" id="Capa_1" xmlns="http://www.w3.org/2000/svg" xmlns:xlink="http://www.w3.org/1999/xlink" x="0px" y="0px"
	 viewBox="0 0 458.79 458.79" style="enable-background:new 0 0 458.79 458.79;" xml:space="preserve">
<g>
	<radialGradient id="SVGID_1_" cx="229.395" cy="235.29" r="223.5" gradientUnits="userSpaceOnUse">
		<stop  offset="0" style="stop-color:#6AE4FF"/>
		<stop  offset="0.1967" style="stop-color:#6DE5FF;stop-opacity:0.8033"/>
		<stop  offset="0.3597" style="stop-color:#78E6FF;stop-opacity:0.6403"/>
		<stop  offset="0.5107" style="stop-color:#89EAFF;stop-opacity:0.4893"/>
		<stop  offset="0.6545" style="stop-color:#A1EEFF;stop-opacity:0.3455"/>
		<stop  offset="0.7932" style="stop-color:#C1F4FF;stop-opacity:0.2068"/>
		<stop  offset="0.9262" style="stop-color:#E6FBFF;stop-opacity:0.0738"/>
		<stop  offset="1" style="stop-color:#FFFFFF;stop-opacity:0"/>
	</radialGradient>
	<circle style="fill:url(#SVGID_1_);" cx="229.395" cy="235.29" r="223.5"/>
	<linearGradient id="SVGID_2_" gradientUnits="userSpaceOnUse" x1="286.6895" y1="297.51" x2="286.6895" y2="406.38">
		<stop  offset="0" style="stop-color:#FFFFFF"/>
		<stop  offset="0.1205" style="stop-color:#E0F4FB"/>
		<stop  offset="0.3334" style="stop-color:#AEE4F5"/>
		<stop  offset="0.5349" style="stop-color:#87D6F0"/>
		<stop  offset="0.7191" style="stop-color:#6BCDEC"/>
		<stop  offset="0.88" style="stop-color:#5AC7EA"/>
		<stop  offset="1" style="stop-color:#54C5E9"/>
	</linearGradient>
	<polygon style="fill:url(#SVGID_2_);" points="329.88,297.51 328.49,334.34 243.5,406.38 269.35,359.72 	"/>
	<linearGradient id="SVGID_3_" gradientUnits="userSpaceOnUse" x1="365.0595" y1="327.33" x2="365.0595" y2="279.36">
		<stop  offset="0" style="stop-color:#FFFFFF"/>
		<stop  offset="0.1205" style="stop-color:#E0F4FB"/>
		<stop  offset="0.3334" style="stop-color:#AEE4F5"/>
		<stop  offset="0.5349" style="stop-color:#87D6F0"/>
		<stop  offset="0.7191" style="stop-color:#6BCDEC"/>
		<stop  offset="0.88" style="stop-color:#5AC7EA"/>
		<stop  offset="1" style="stop-color:#54C5E9"/>
	</linearGradient>
	<polygon style="fill:url(#SVGID_3_);" points="393.36,279.36 336.76,327.33 338.12,291.2 	"/>
	<linearGradient id="SVGID_4_" gradientUnits="userSpaceOnUse" x1="400.8495" y1="253.355" x2="340.4595" y2="253.355">
		<stop  offset="0" style="stop-color:#FFFFFF"/>
		<stop  offset="0.241" style="stop-color:#FCFEFF"/>
		<stop  offset="0.3959" style="stop-color:#F4FBFE"/>
		<stop  offset="0.5266" style="stop-color:#E5F6FC"/>
		<stop  offset="0.6437" style="stop-color:#D0EFF9"/>
		<stop  offset="0.752" style="stop-color:#B5E6F5"/>
		<stop  offset="0.8535" style="stop-color:#93DBF1"/>
		<stop  offset="0.9481" style="stop-color:#6DCDEC"/>
		<stop  offset="1" style="stop-color:#54C5E9"/>
	</linearGradient>
	<polygon style="fill:url(#SVGID_4_);" points="363.63,224.19 400.85,269.58 340.46,282.52 	"/>
	<linearGradient id="SVGID_5_" gradientUnits="userSpaceOnUse" x1="374.5895" y1="245.34" x2="426.0895" y2="245.34">
		<stop  offset="0" style="stop-color:#FFFFFF"/>
		<stop  offset="0.241" style="stop-color:#FCFEFF"/>
		<stop  offset="0.3959" style="stop-color:#F4FBFE"/>
		<stop  offset="0.5266" style="stop-color:#E5F6FC"/>
		<stop  offset="0.6437" style="stop-color:#D0EFF9"/>
		<stop  offset="0.752" style="stop-color:#B5E6F5"/>
		<stop  offset="0.8535" style="stop-color:#93DBF1"/>
		<stop  offset="0.9481" style="stop-color:#6DCDEC"/>
		<stop  offset="1" style="stop-color:#54C5E9"/>
	</linearGradient>
	<polygon style="fill:url(#SVGID_5_);" points="426.09,243.09 408.06,265.75 374.59,224.93 	"/>
	<linearGradient id="SVGID_6_" gradientUnits="userSpaceOnUse" x1="419.8495" y1="196.27" x2="320.2395" y2="196.27">
		<stop  offset="0" style="stop-color:#FFFFFF"/>
		<stop  offset="0.1158" style="stop-color:#F8FDFE"/>
		<stop  offset="0.2827" style="stop-color:#E5F6FC"/>
		<stop  offset="0.4805" style="stop-color:#C6ECF8"/>
		<stop  offset="0.7023" style="stop-color:#9ADDF2"/>
		<stop  offset="0.941" style="stop-color:#63CAEB"/>
		<stop  offset="1" style="stop-color:#54C5E9"/>
	</linearGradient>
	<polygon style="fill:url(#SVGID_6_);" points="382.29,188.92 419.85,232.41 364.8,213 328.04,167.41 320.24,160.13 	"/>
	<linearGradient id="SVGID_7_" gradientUnits="userSpaceOnUse" x1="303.5295" y1="191.06" x2="350.2495" y2="191.06">
		<stop  offset="0" style="stop-color:#FFFFFF"/>
		<stop  offset="0.241" style="stop-color:#FCFEFF"/>
		<stop  offset="0.3959" style="stop-color:#F4FBFE"/>
		<stop  offset="0.5266" style="stop-color:#E5F6FC"/>
		<stop  offset="0.6437" style="stop-color:#D0EFF9"/>
		<stop  offset="0.752" style="stop-color:#B5E6F5"/>
		<stop  offset="0.8535" style="stop-color:#93DBF1"/>
		<stop  offset="0.9481" style="stop-color:#6DCDEC"/>
		<stop  offset="1" style="stop-color:#54C5E9"/>
	</linearGradient>
	<polygon style="fill:url(#SVGID_7_);" points="322.67,174.25 350.25,207.87 303.53,191.39 	"/>
	<linearGradient id="SVGID_8_" gradientUnits="userSpaceOnUse" x1="357.1695" y1="239.765" x2="272.6095" y2="239.765">
		<stop  offset="0" style="stop-color:#FFFFFF"/>
		<stop  offset="0.241" style="stop-color:#FCFEFF"/>
		<stop  offset="0.3959" style="stop-color:#F4FBFE"/>
		<stop  offset="0.5266" style="stop-color:#E5F6FC"/>
		<stop  offset="0.6437" style="stop-color:#D0EFF9"/>
		<stop  offset="0.752" style="stop-color:#B5E6F5"/>
		<stop  offset="0.8535" style="stop-color:#93DBF1"/>
		<stop  offset="0.9481" style="stop-color:#6DCDEC"/>
		<stop  offset="1" style="stop-color:#54C5E9"/>
	</linearGradient>
	<polygon style="fill:url(#SVGID_8_);" points="357.17,218.79 332.12,281.82 272.61,253.75 297.38,197.71 	"/>
	<linearGradient id="SVGID_9_" gradientUnits="userSpaceOnUse" x1="262.2495" y1="197.53" x2="262.2495" y2="247.75">
		<stop  offset="0" style="stop-color:#FFFFFF"/>
		<stop  offset="0.241" style="stop-color:#FCFEFF"/>
		<stop  offset="0.3959" style="stop-color:#F4FBFE"/>
		<stop  offset="0.5266" style="stop-color:#E5F6FC"/>
		<stop  offset="0.6437" style="stop-color:#D0EFF9"/>
		<stop  offset="0.752" style="stop-color:#B5E6F5"/>
		<stop  offset="0.8535" style="stop-color:#93DBF1"/>
		<stop  offset="0.9481" style="stop-color:#6DCDEC"/>
		<stop  offset="1" style="stop-color:#54C5E9"/>
	</linearGradient>
	<polygon style="fill:url(#SVGID_9_);" points="288.71,197.53 266.52,247.75 235.79,205.66 	"/>
	<linearGradient id="SVGID_10_" gradientUnits="userSpaceOnUse" x1="229.3995" y1="210.47" x2="229.3995" y2="302.42">
		<stop  offset="0" style="stop-color:#FFFFFF"/>
		<stop  offset="0.241" style="stop-color:#FCFEFF"/>
		<stop  offset="0.3959" style="stop-color:#F4FBFE"/>
		<stop  offset="0.5266" style="stop-color:#E5F6FC"/>
		<stop  offset="0.6437" style="stop-color:#D0EFF9"/>
		<stop  offset="0.752" style="stop-color:#B5E6F5"/>
		<stop  offset="0.8535" style="stop-color:#93DBF1"/>
		<stop  offset="0.9481" style="stop-color:#6DCDEC"/>
		<stop  offset="1" style="stop-color:#54C5E9"/>
	</linearGradient>
	<polygon style="fill:url(#SVGID_10_);" points="229.4,210.47 262.45,255.74 229.4,302.42 196.35,255.74 	"/>
	<linearGradient id="SVGID_11_" gradientUnits="userSpaceOnUse" x1="280.2695" y1="260.75" x2="280.2695" y2="304.55">
		<stop  offset="0" style="stop-color:#FFFFFF"/>
		<stop  offset="0.1186" style="stop-color:#F9FDFE"/>
		<stop  offset="0.2809" style="stop-color:#E7F7FC"/>
		<stop  offset="0.4686" style="stop-color:#CAEDF8"/>
		<stop  offset="0.6752" style="stop-color:#A2DFF3"/>
		<stop  offset="0.8948" style="stop-color:#6FCEEC"/>
		<stop  offset="1" style="stop-color:#54C5E9"/>
	</linearGradient>
	<polygon style="fill:url(#SVGID_11_);" points="322.85,286.3 237.69,304.55 268.7,260.75 	"/>
	<linearGradient id="SVGID_12_" gradientUnits="userSpaceOnUse" x1="278.5195" y1="294.8" x2="278.5195" y2="351.28">
		<stop  offset="0" style="stop-color:#FFFFFF"/>
		<stop  offset="0.1205" style="stop-color:#E0F4FB"/>
		<stop  offset="0.3334" style="stop-color:#AEE4F5"/>
		<stop  offset="0.5349" style="stop-color:#87D6F0"/>
		<stop  offset="0.7191" style="stop-color:#6BCDEC"/>
		<stop  offset="0.88" style="stop-color:#5AC7EA"/>
		<stop  offset="1" style="stop-color:#54C5E9"/>
	</linearGradient>
	<polygon style="fill:url(#SVGID_12_);" points="321.35,294.8 266.4,351.28 235.69,313.16 	"/>
	<linearGradient id="SVGID_13_" gradientUnits="userSpaceOnUse" x1="229.3995" y1="318.1" x2="229.3995" y2="415.32">
		<stop  offset="0" style="stop-color:#FFFFFF"/>
		<stop  offset="0.1205" style="stop-color:#E0F4FB"/>
		<stop  offset="0.3334" style="stop-color:#AEE4F5"/>
		<stop  offset="0.5349" style="stop-color:#87D6F0"/>
		<stop  offset="0.7191" style="stop-color:#6BCDEC"/>
		<stop  offset="0.88" style="stop-color:#5AC7EA"/>
		<stop  offset="1" style="stop-color:#54C5E9"/>
	</linearGradient>
	<polygon style="fill:url(#SVGID_13_);" points="229.4,318.1 261.31,357.72 229.4,415.32 197.49,357.72 	"/>
	<linearGradient id="SVGID_14_" gradientUnits="userSpaceOnUse" x1="178.5195" y1="260.75" x2="178.5195" y2="304.55">
		<stop  offset="0" style="stop-color:#FFFFFF"/>
		<stop  offset="0.1186" style="stop-color:#F9FDFE"/>
		<stop  offset="0.2809" style="stop-color:#E7F7FC"/>
		<stop  offset="0.4686" style="stop-color:#CAEDF8"/>
		<stop  offset="0.6752" style="stop-color:#A2DFF3"/>
		<stop  offset="0.8948" style="stop-color:#6FCEEC"/>
		<stop  offset="1" style="stop-color:#54C5E9"/>
	</linearGradient>
	<polygon style="fill:url(#SVGID_14_);" points="190.09,260.75 221.1,304.55 135.94,286.3 	"/>
	<linearGradient id="SVGID_15_" gradientUnits="userSpaceOnUse" x1="180.2745" y1="294.8" x2="180.2745" y2="351.28">
		<stop  offset="0" style="stop-color:#FFFFFF"/>
		<stop  offset="0.1205" style="stop-color:#E0F4FB"/>
		<stop  offset="0.3334" style="stop-color:#AEE4F5"/>
		<stop  offset="0.5349" style="stop-color:#87D6F0"/>
		<stop  offset="0.7191" style="stop-color:#6BCDEC"/>
		<stop  offset="0.88" style="stop-color:#5AC7EA"/>
		<stop  offset="1" style="stop-color:#54C5E9"/>
	</linearGradient>
	<polygon style="fill:url(#SVGID_15_);" points="223.11,313.16 192.4,351.28 137.44,294.8 	"/>
	<linearGradient id="SVGID_16_" gradientUnits="userSpaceOnUse" x1="172.1045" y1="297.51" x2="172.1045" y2="406.38">
		<stop  offset="0" style="stop-color:#FFFFFF"/>
		<stop  offset="0.1205" style="stop-color:#E0F4FB"/>
		<stop  offset="0.3334" style="stop-color:#AEE4F5"/>
		<stop  offset="0.5349" style="stop-color:#87D6F0"/>
		<stop  offset="0.7191" style="stop-color:#6BCDEC"/>
		<stop  offset="0.88" style="stop-color:#5AC7EA"/>
		<stop  offset="1" style="stop-color:#54C5E9"/>
	</linearGradient>
	<polygon style="fill:url(#SVGID_16_);" points="189.44,359.72 215.3,406.38 130.3,334.34 128.91,297.51 	"/>
	<linearGradient id="SVGID_17_" gradientUnits="userSpaceOnUse" x1="93.7295" y1="327.33" x2="93.7295" y2="279.36">
		<stop  offset="0" style="stop-color:#FFFFFF"/>
		<stop  offset="0.1205" style="stop-color:#E0F4FB"/>
		<stop  offset="0.3334" style="stop-color:#AEE4F5"/>
		<stop  offset="0.5349" style="stop-color:#87D6F0"/>
		<stop  offset="0.7191" style="stop-color:#6BCDEC"/>
		<stop  offset="0.88" style="stop-color:#5AC7EA"/>
		<stop  offset="1" style="stop-color:#54C5E9"/>
	</linearGradient>
	<polygon style="fill:url(#SVGID_17_);" points="120.67,291.2 122.03,327.33 65.43,279.36 	"/>
	<linearGradient id="SVGID_18_" gradientUnits="userSpaceOnUse" x1="196.6545" y1="197.71" x2="196.6545" y2="247.75">
		<stop  offset="0" style="stop-color:#FFFFFF"/>
		<stop  offset="0.241" style="stop-color:#FCFEFF"/>
		<stop  offset="0.3959" style="stop-color:#F4FBFE"/>
		<stop  offset="0.5266" style="stop-color:#E5F6FC"/>
		<stop  offset="0.6437" style="stop-color:#D0EFF9"/>
		<stop  offset="0.752" style="stop-color:#B5E6F5"/>
		<stop  offset="0.8535" style="stop-color:#93DBF1"/>
		<stop  offset="0.9481" style="stop-color:#6DCDEC"/>
		<stop  offset="1" style="stop-color:#54C5E9"/>
	</linearGradient>
	<polygon style="fill:url(#SVGID_18_);" points="223.15,205.46 192.28,247.75 170.16,197.71 	"/>
	<linearGradient id="SVGID_19_" gradientUnits="userSpaceOnUse" x1="101.6295" y1="239.765" x2="186.1795" y2="239.765">
		<stop  offset="0" style="stop-color:#FFFFFF"/>
		<stop  offset="0.241" style="stop-color:#FCFEFF"/>
		<stop  offset="0.3959" style="stop-color:#F4FBFE"/>
		<stop  offset="0.5266" style="stop-color:#E5F6FC"/>
		<stop  offset="0.6437" style="stop-color:#D0EFF9"/>
		<stop  offset="0.752" style="stop-color:#B5E6F5"/>
		<stop  offset="0.8535" style="stop-color:#93DBF1"/>
		<stop  offset="0.9481" style="stop-color:#6DCDEC"/>
		<stop  offset="1" style="stop-color:#54C5E9"/>
	</linearGradient>
	<polygon style="fill:url(#SVGID_19_);" points="161.42,197.71 186.18,253.75 126.67,281.82 101.63,218.79 	"/>
	<linearGradient id="SVGID_20_" gradientUnits="userSpaceOnUse" x1="57.9395" y1="253.355" x2="118.3395" y2="253.355">
		<stop  offset="0" style="stop-color:#FFFFFF"/>
		<stop  offset="0.241" style="stop-color:#FCFEFF"/>
		<stop  offset="0.3959" style="stop-color:#F4FBFE"/>
		<stop  offset="0.5266" style="stop-color:#E5F6FC"/>
		<stop  offset="0.6437" style="stop-color:#D0EFF9"/>
		<stop  offset="0.752" style="stop-color:#B5E6F5"/>
		<stop  offset="0.8535" style="stop-color:#93DBF1"/>
		<stop  offset="0.9481" style="stop-color:#6DCDEC"/>
		<stop  offset="1" style="stop-color:#54C5E9"/>
	</linearGradient>
	<polygon style="fill:url(#SVGID_20_);" points="95.17,224.19 118.34,282.52 57.94,269.58 	"/>
	<linearGradient id="SVGID_21_" gradientUnits="userSpaceOnUse" x1="84.2095" y1="245.34" x2="32.7095" y2="245.34">
		<stop  offset="0" style="stop-color:#FFFFFF"/>
		<stop  offset="0.241" style="stop-color:#FCFEFF"/>
		<stop  offset="0.3959" style="stop-color:#F4FBFE"/>
		<stop  offset="0.5266" style="stop-color:#E5F6FC"/>
		<stop  offset="0.6437" style="stop-color:#D0EFF9"/>
		<stop  offset="0.752" style="stop-color:#B5E6F5"/>
		<stop  offset="0.8535" style="stop-color:#93DBF1"/>
		<stop  offset="0.9481" style="stop-color:#6DCDEC"/>
		<stop  offset="1" style="stop-color:#54C5E9"/>
	</linearGradient>
	<polygon style="fill:url(#SVGID_21_);" points="84.21,224.93 50.74,265.75 32.71,243.09 	"/>
	<linearGradient id="SVGID_22_" gradientUnits="userSpaceOnUse" x1="108.5495" y1="191.15" x2="155.6995" y2="191.15">
		<stop  offset="0" style="stop-color:#FFFFFF"/>
		<stop  offset="0.241" style="stop-color:#FCFEFF"/>
		<stop  offset="0.3959" style="stop-color:#F4FBFE"/>
		<stop  offset="0.5266" style="stop-color:#E5F6FC"/>
		<stop  offset="0.6437" style="stop-color:#D0EFF9"/>
		<stop  offset="0.752" style="stop-color:#B5E6F5"/>
		<stop  offset="0.8535" style="stop-color:#93DBF1"/>
		<stop  offset="0.9481" style="stop-color:#6DCDEC"/>
		<stop  offset="1" style="stop-color:#54C5E9"/>
	</linearGradient>
	<polygon style="fill:url(#SVGID_22_);" points="155.7,191.24 108.55,207.87 135.97,174.43 	"/>
	<linearGradient id="SVGID_23_" gradientUnits="userSpaceOnUse" x1="38.9395" y1="195.985" x2="139.7195" y2="195.985">
		<stop  offset="0" style="stop-color:#FFFFFF"/>
		<stop  offset="0.1158" style="stop-color:#F8FDFE"/>
		<stop  offset="0.2827" style="stop-color:#E5F6FC"/>
		<stop  offset="0.4805" style="stop-color:#C6ECF8"/>
		<stop  offset="0.7023" style="stop-color:#9ADDF2"/>
		<stop  offset="0.941" style="stop-color:#63CAEB"/>
		<stop  offset="1" style="stop-color:#54C5E9"/>
	</linearGradient>
	<path style="fill:url(#SVGID_23_);" d="M132.37,166.21L93.99,213l-55.05,19.41l37.56-43.49l63.22-29.36c0,0-7.21,6.5-7.34,6.66
		L132.37,166.21z"/>
	<linearGradient id="SVGID_24_" gradientUnits="userSpaceOnUse" x1="229.4745" y1="198.41" x2="229.4745" y2="138.48">
		<stop  offset="0" style="stop-color:#FFFFFF"/>
		<stop  offset="0.241" style="stop-color:#FCFEFF"/>
		<stop  offset="0.3959" style="stop-color:#F4FBFE"/>
		<stop  offset="0.5266" style="stop-color:#E5F6FC"/>
		<stop  offset="0.6437" style="stop-color:#D0EFF9"/>
		<stop  offset="0.752" style="stop-color:#B5E6F5"/>
		<stop  offset="0.8535" style="stop-color:#93DBF1"/>
		<stop  offset="0.9481" style="stop-color:#6DCDEC"/>
		<stop  offset="1" style="stop-color:#54C5E9"/>
	</linearGradient>
	<polygon style="fill:url(#SVGID_24_);" points="317.41,168.22 294.75,188.51 230.28,198.41 165.3,188.91 141.54,168.67 
		164.2,148.38 228.67,138.48 293.66,147.98 	"/>
	<path d="M436.76,65.73c1.34,1.76,1,4.27-0.76,5.61l-81.16,61.84c-0.73,0.55-1.58,0.81-2.42,0.81c-1.21,0-2.4-0.54-3.19-1.57
		c-1.34-1.76-1-4.27,0.76-5.61l81.16-61.84C432.91,63.63,435.42,63.97,436.76,65.73z"/>
	<path d="M435.75,238.58c1.18,1.37,1.29,3.37,0.27,4.86c-0.05,0.09-0.12,0.16-0.18,0.23l0.01,0.01l-24.6,30.91l-0.01,0.01
		c-0.16,0.2-1.08,1.02-1.08,1.02l-178.18,151c-0.74,0.64-1.66,0.95-2.58,0.95s-1.84-0.31-2.59-0.95L49.01,275.93
		c0,0-1.3-1.13-1.45-1.33l-0.01-0.01l-24.6-30.91l0.01-0.01c-0.06-0.07-0.13-0.14-0.19-0.23c-1.02-1.49-0.91-3.49,0.28-4.86
		l47.96-55.54c0.37-0.43,0.83-0.77,1.34-1.01l88.38-41.05c0.34-0.16,0.7-0.27,1.08-0.33l66.24-10.17c0.39-0.06,0.79-0.06,1.18-0.01
		l66.72,9.76c0.64,0.09,1.24,0.34,1.76,0.72l88.73,41.08c0.51,0.24,0.97,0.58,1.34,1.01L435.75,238.58z M408.06,265.75l18.03-22.66
		l-51.5-18.16L408.06,265.75z M419.85,232.41l-37.56-43.49l-62.05-28.79l7.8,7.28L364.8,213L419.85,232.41z M400.85,269.58
		l-37.22-45.39l-23.17,58.33L400.85,269.58z M336.76,327.33l56.6-47.97l-55.24,11.84L336.76,327.33z M332.12,281.82l25.05-63.03
		l-59.79-21.08l-24.77,56.04L332.12,281.82z M350.25,207.87l-27.58-33.62l-19.14,17.14L350.25,207.87z M328.49,334.34l1.39-36.83
		l-60.53,62.21l-25.85,46.66L328.49,334.34z M237.69,304.55l85.16-18.25l-54.15-25.55L237.69,304.55z M266.4,351.28l54.95-56.48
		l-85.66,18.36L266.4,351.28z M294.75,188.51l22.66-20.29l-23.75-20.24l-64.99-9.5l-64.47,9.9l-22.66,20.29l23.76,20.24l64.98,9.5
		L294.75,188.51z M266.52,247.75l22.19-50.22l-52.92,8.13L266.52,247.75z M262.45,255.74l-33.05-45.27l-33.05,45.27l33.05,46.68
		L262.45,255.74z M261.31,357.72L229.4,318.1l-31.91,39.62l31.91,57.6L261.31,357.72z M192.28,247.75l30.87-42.29l-52.99-7.75
		L192.28,247.75z M192.4,351.28l30.71-38.12l-85.67-18.36L192.4,351.28z M221.1,304.55l-31.01-43.8l-54.15,25.55L221.1,304.55z
		 M215.3,406.38l-25.86-46.66l-60.53-62.21l1.39,36.83L215.3,406.38z M186.18,253.75l-24.76-56.04l-59.79,21.08l25.04,63.03
		L186.18,253.75z M108.55,207.87l47.15-16.63l-19.73-16.81L108.55,207.87z M139.72,159.56L76.5,188.92l-37.56,43.49L93.99,213
		l38.38-46.79l0.01,0.01C132.51,166.06,139.72,159.56,139.72,159.56z M122.03,327.33l-1.36-36.13l-55.24-11.84L122.03,327.33z
		 M118.34,282.52l-23.17-58.33l-37.23,45.39L118.34,282.52z M50.74,265.75l33.47-40.82l-51.5,18.16L50.74,265.75z"/>
	<path d="M234.3,4v87.46c0,2.21-1.79,4-4,4c-2.21,0-4-1.79-4-4V4c0-2.21,1.79-4,4-4C232.51,0,234.3,1.79,234.3,4z"/>
	<path d="M110.61,126.81c1.76,1.34,2.1,3.85,0.76,5.61c-0.79,1.03-1.98,1.57-3.19,1.57c-0.84,0-1.69-0.26-2.42-0.81L24.6,71.34
		c-1.76-1.34-2.1-3.85-0.76-5.61c1.34-1.76,3.85-2.1,5.61-0.76L110.61,126.81z"/>
</g>
<g>
</g>
<g>
</g>
<g>
</g>
<g>
</g>
<g>
</g>
<g>
</g>
<g>
</g>
<g>
</g>
<g>
</g>
<g>
</g>
<g>
</g>
<g>
</g>
<g>
</g>
<g>
</g>
<g>
</g>
</svg>
