<?xml version="1.0" encoding="iso-8859-1"?>
<!-- Generator: Adobe Illustrator 19.0.0, SVG Export Plug-In . SVG Version: 6.00 Build 0)  -->
<svg version="1.1" id="Layer_1" xmlns="http://www.w3.org/2000/svg" xmlns:xlink="http://www.w3.org/1999/xlink" x="0px" y="0px"
	 viewBox="0 0 269.887 269.887" style="enable-background:new 0 0 269.887 269.887;" xml:space="preserve">
<g>
	<g>
		<path style="fill:#4EFFBB;" d="M269.887,92.529c0-1.617-0.588-3.233-1.647-4.526l-40.216-48.72
			c-0.439-0.503-0.953-0.933-1.501-1.293c-1.319-1.113-3.002-1.796-4.835-1.796H141.62h-0.329H61.188
			c-2.308,0-4.394,1.043-5.789,2.766c-0.037,0.037-0.037,0.037-0.073,0.073L15.114,87.716c-1.063,1.293-1.611,2.91-1.611,4.526
			c0,1.077,0.219,2.12,0.731,3.126c0.256,0.54,0.588,0.97,0.953,1.437l122.076,145.12c0.365,0.43,0.807,0.827,1.245,1.15
			c0.037,0.037,0.11,0.073,0.146,0.107c0.548,0.36,1.099,0.647,1.721,0.863c0.146,0.073,0.329,0.143,0.512,0.18
			c0.697,0.216,1.394,0.36,2.125,0.36h0.037h0.037c0.512,0,0.99-0.073,1.465-0.18c0.146-0.037,0.256-0.07,0.402-0.107
			c0.365-0.107,0.697-0.216,1.063-0.36c0.11-0.073,0.219-0.107,0.365-0.18c0.439-0.216,0.843-0.43,1.245-0.753
			c0,0,0.037-0.037,0.073-0.07c0.365-0.253,0.661-0.576,0.99-0.933c0.037-0.037,0.073-0.073,0.11-0.143L268.236,97.061l-0.037-0.037
			c0.365-0.43,0.697-0.863,0.953-1.366C269.631,94.649,269.887,93.572,269.887,92.529z"/>
		<g id="XMLID_13_">
			<g>
				<polygon style="fill:#302C58;" points="158.373,88.573 129.217,198.592 97.719,88.573 				"/>
				<polygon style="fill:#302C58;" points="208.735,44.453 233.458,74.382 184.012,74.382 				"/>
				<polygon style="fill:#302C58;" points="128.084,44.416 152.621,74.129 103.544,74.129 				"/>
				<polygon style="fill:#302C58;" points="47.615,44.2 72.338,74.129 22.893,74.129 				"/>
				<path style="fill:#222051;" d="M256.384,81.641c0-1.617-0.585-3.233-1.647-4.526l-40.216-48.72
					c-0.439-0.503-0.953-0.933-1.501-1.293c-1.319-1.116-3.002-1.799-4.835-1.799H47.686c-2.308,0-4.394,1.043-5.789,2.766
					c-0.037,0.037-0.037,0.037-0.073,0.073L1.611,76.825C0.548,78.118,0,79.735,0,81.351c0,1.077,0.219,2.12,0.731,3.126
					c0.256,0.54,0.585,0.97,0.953,1.437l22.901,27.225c2.747,3.264,7.762,3.5,10.815,0.506l0.104-0.104
					c2.665-2.615,2.87-6.789,0.469-9.643L23.072,88.571h59.226l30.584,106.712l-30.969-36.795c-2.778-3.3-7.849-3.537-10.933-0.512
					l0,0c-2.696,2.645-2.901,6.865-0.475,9.75l53.255,63.308c0.365,0.43,0.807,0.827,1.245,1.15c0.037,0.037,0.11,0.073,0.146,0.107
					c0.548,0.36,1.099,0.647,1.721,0.863c0.146,0.07,0.329,0.143,0.512,0.18c0.697,0.216,1.392,0.36,2.125,0.36h0.073
					c0.512,0,0.99-0.073,1.465-0.18c0.146-0.037,0.256-0.073,0.402-0.107c0.365-0.107,0.697-0.216,1.063-0.36
					c0.11-0.07,0.219-0.107,0.365-0.18c0.439-0.216,0.843-0.43,1.245-0.753c0,0,0.037-0.037,0.073-0.073
					c0.365-0.253,0.658-0.574,0.99-0.933c0.037-0.037,0.073-0.073,0.11-0.143L254.736,86.167L254.7,86.13
					c0.365-0.43,0.694-0.863,0.953-1.366C256.128,83.76,256.384,82.681,256.384,81.641z M192.691,39.746l-24.54,29.713
					l-24.54-29.713C143.611,39.746,192.691,39.746,192.691,39.746z M152.621,74.129h-49.077l24.54-29.713L152.621,74.129z
					 M22.893,74.129L47.615,44.2l24.723,29.929H22.893z M63.182,39.746h49.445l-24.723,29.93L63.182,39.746z M129.217,198.592
					L97.719,88.573h60.654L129.217,198.592z M145.334,195.752L173.647,88.86h59.811L145.334,195.752z M184.012,74.382l24.723-29.929
					l24.723,29.929H184.012z"/>
				<path style="fill:#222051;" d="M42.881,124.46l-0.101,0.101c-2.668,2.617-2.87,6.795-0.469,9.648l10.424,12.392
					c2.749,3.267,7.768,3.503,10.821,0.506c0.034-0.034,0.07-0.067,0.104-0.104c2.668-2.617,2.87-6.795,0.469-9.648l-10.427-12.389
					C50.955,121.699,45.934,121.466,42.881,124.46z"/>
			</g>
		</g>
	</g>
</g>
<g>
</g>
<g>
</g>
<g>
</g>
<g>
</g>
<g>
</g>
<g>
</g>
<g>
</g>
<g>
</g>
<g>
</g>
<g>
</g>
<g>
</g>
<g>
</g>
<g>
</g>
<g>
</g>
<g>
</g>
</svg>
